<svg version="1.2" xmlns="http://www.w3.org/2000/svg" viewBox="0 0 1200 1000" width="1200" height="1000"><style>.a{fill:#fcfefa}.b{fill:#2b3b4c}.c{fill:#fff}.d{fill:#204d3c}.e{fill:#f6fcf3}.f{fill:#224b3c}.g{fill:#4fa362}.h{fill:#f5792a}.i{fill:#44a15d}.j{fill:#fcfcfc}.k{fill:#47a763}.l{fill:#398845}.m{fill:#fffdfc}.n{fill:#7b462f}.o{fill:#293c48}.p{fill:#90d8bc}.q{fill:#d1ecdd}.r{fill:#2b3b48}.s{fill:#55a1c1}.t{fill:#293947}.u{fill:#a3c5c5}.v{fill:#7ecb42}.w{fill:#e67b2a}.x{fill:#82cf51}.y{fill:#343c46}.z{fill:#8ccc5c}.A{fill:#44a05e}.B{fill:#449f5e}.C{fill:#21493b}.D{fill:#224b3e}.E{fill:#7fc947}.F{fill:#a2da61}.G{fill:#a0d95d}.H{fill:#a3da61}.I{fill:#85d04e}.J{fill:#fef8fc}.K{fill:#508e73}.L{fill:#df7d2d}.M{fill:#558b89}.N{fill:#794129}.O{fill:#bfe475}.P{fill:#56a955}.Q{fill:#459e5f}.R{fill:#9bd75a}.S{fill:#98d662}.T{fill:#8ed355}.U{fill:#459e60}.V{fill:#8bd254}.W{fill:#44a15f}.X{fill:#91d456}.Y{fill:#8fd056}.Z{fill:#82cf54}.a0{fill:#59c259}.a1{fill:#cbe886}.a2{fill:#8ed350}.a3{fill:#52c057}.a4{fill:#2a3541}</style><path class="a" d="m631.7 200.2c0-61.4-49.7-111.2-111.1-111.2-61.4 0-111.2 49.8-111.2 111.2 0 37.7 18.8 71 47.6 91.1v20.9c0 0-0.1 20.1 24.5 22.8 22.2 2.4 29.2-15.2 29.2-15.2 0 0-1.9 26.7 23.7 28.1 0 0-6.4 30.1 23.3 35.5 12.6 2.2 24-3.8 29.9-11.3 8.3-10.6 5.9-21.4 2.8-31.3-2.7-8.5-14.1-20.5-14.1-31.7v-12.7c33.2-19.3 55.4-55.2 55.4-96.2z"/><path class="b" d="m519.8 135.9l-38.6 70.2c0 0-8.9 19.2 4.2 39.1 13.1 19.9 41.6 19.8 56.6 11.5 15-8.2 25.1-28.9 16.5-49.1-8.6-20.3-38.7-71.7-38.7-71.7z"/><path class="c" d="m492.8 213.8c0 0-1.1 15.5 7.5 26.2 8.7 10.7 20.5 9.4 20.5 9.4 0 0 4.1-0.4 4.7 2.8 0.5 3.2-4.5 3.6-6 3.8-1.5 0.2-16.4 0.3-25.9-13.7-9.6-14.1-6.6-28.4-6.6-28.4 0 0 0.5-2.7 3.2-2.8 2.6 0 2.6 2.7 2.6 2.7z"/><path class="d" d="m520.7 97.7c-56.2 0-101.7 45.5-101.7 101.7 0 34 16.6 64 42.2 82.5v-29c-12.8-14.2-20.5-32.9-20.5-53.5 0-44.2 35.8-80 80-80 44.2 0 80 35.8 80 80 0 22.7-9.5 43.2-24.7 57.7v27.6c27.9-18.1 46.4-49.5 46.4-85.3 0-56.2-45.5-101.7-101.7-101.7z"/><path class="d" d="m574.6 335c-4.3-7.5-5.6-23.3-5.6-29.7 0-5.9 0.3-42.4 0.3-42.4-13.5 10.4-30.3 16.5-48.6 16.5-20.9 0-39.9-8-54.1-21.1v42.7c0 0-1.2 21 15.7 21 16.9 0 20.7-10.9 21.6-15.6 0.9-4.7 4.1-14 13.5-14 9.4 0 13.7 7.8 12.6 14-1.2 6.2-4.9 13.4-5.3 19.4-0.4 6 4.1 9.8 10.3 9.9 7.7 0.1 10.4-6.7 8.7-13.3-1.7-6.6-9.8-14.8-3.8-26.1 6-11.3 19.5-4.3 20.8 3.9 1.4 8.3 2.9 19-4.8 33.1-7 12.9-11.1 20.8-5.3 31.1 5.8 10.3 24.6 8.8 28.5-1.9 4-10.7-0.8-21.3-4.5-27.5z"/><path class="e" d="m315.7 688.3c0 61-49.5 110.4-110.5 110.4-61 0-110.4-49.4-110.4-110.4 0-61 49.4-110.5 110.4-110.5 61 0 110.5 49.5 110.5 110.5z"/><path class="f" d="m305.2 688.3c0 55.2-44.7 100-100 100-55.2 0-100-44.8-100-100 0-55.3 44.8-100 100-100 55.3 0 100 44.7 100 100z"/><path class="g" d="m175.8 632.1c-2.8 0-5 2.3-5 5.1v118.4c0 2.8 2.2 5 5 5h72.7c2.8 0 5.1-2.2 5.1-5v-118.4c0-2.8-2.3-5.1-5.1-5.1h-18.2v-13.6c0-0.6-0.5-1.1-1.1-1.1h-36.4c-0.6 0-1 0.5-1 1.1v13.6z"/><path class="a" d="m248.5 765.6h-72.7c-5.5 0-10-4.5-10-10v-118.4c0-5.6 4.5-10.1 10-10.1h11v-8.6c0-3.4 2.7-6.1 6-6.1h36.4c3.4 0 6.1 2.7 6.1 6.1v8.6h13.2c5.5 0 10.1 4.5 10.1 10.1v118.4c0 5.5-4.6 10-10.1 10zm-72.7-133.5c-2.8 0-5 2.3-5 5.1v118.4c0 2.8 2.2 5 5 5h72.7c2.8 0 5.1-2.2 5.1-5v-118.4c0-2.8-2.3-5.1-5.1-5.1h-18.2v-13.6c0-0.6-0.5-1.1-1.1-1.1h-36.4c-0.6 0-1 0.5-1 1.1v13.6z"/><path class="h" d="m245 711.5h-64.9v-31.5h64.9z"/><path class="h" d="m245 752.2h-64.9v-31.5h64.9z"/><path class="a" d="m209.3 659h-29v-8.1h29z"/><path class="a" d="m248.5 765.6h-72.7c-5.5 0-10-4.5-10-10v-118.4c0-5.6 4.5-10.1 10-10.1h11v-8.6c0-3.4 2.7-6.1 6-6.1h36.4c3.4 0 6.1 2.7 6.1 6.1v8.6h13.2c5.5 0 10.1 4.5 10.1 10.1v118.4c0 5.5-4.6 10-10.1 10zm-72.7-133.5c-2.8 0-5 2.3-5 5.1v118.4c0 2.8 2.2 5 5 5h72.7c2.8 0 5.1-2.2 5.1-5v-118.4c0-2.8-2.3-5.1-5.1-5.1h-18.2v-13.6c0-0.6-0.5-1.1-1.1-1.1h-36.4c-0.6 0-1 0.5-1 1.1v13.6z"/><path class="e" d="m893.2 367.2c0 58-47.1 105.1-105.1 105.1-58.1 0-105.1-47.1-105.1-105.1 0-58.1 47-105.1 105.1-105.1 58 0 105.1 47 105.1 105.1z"/><path class="i" d="m883.3 367.2c0 52.5-42.6 95.1-95.2 95.1-52.6 0-95.2-42.6-95.2-95.1 0-52.6 42.6-95.2 95.2-95.2 52.6 0 95.2 42.6 95.2 95.2z"/><path class="j" d="m822.8 413.2h-68.9c-5 0-9.1-4.1-9.1-9.1v-69.5c0-5.1 4.1-9.2 9.1-9.2h68.9c5.1 0 9.2 4.1 9.2 9.2v69.5c0 5-4.1 9.1-9.2 9.1z"/><path class="k" d="m807.9 355.1h-5.1v-17.9h-5.9v17.9h-16.5v-17.9h-5.9v17.9h-7.9l2.8 2.8v17.6c0 1.6 1.3 2.8 2.9 2.8h11.5v25l18.7-25h4.3c1.8 0 3.3-1.5 3.3-3.3v-17.7c0-1.2-1-2.2-2.2-2.2z"/><path class="j" d="m741.1 392.4h-13.1c-0.8-2-2.8-3.4-5.1-3.4-3 0-5.4 2.4-5.4 5.5 0 3 2.4 5.5 5.4 5.5 2.2 0 4.1-1.3 5-3.1h13.2z"/><path class="j" d="m741.1 376h-13.1c-0.8-2-2.8-3.4-5.1-3.4-3 0-5.4 2.4-5.4 5.5 0 3 2.4 5.5 5.4 5.5 2.2 0 4.1-1.3 5-3.1h13.2z"/><path class="j" d="m741.1 358.6h-13.1c-0.8-2-2.8-3.4-5.1-3.4-3 0-5.4 2.5-5.4 5.5 0 3 2.4 5.5 5.4 5.5 2.2 0 4.1-1.3 5-3.1h13.2z"/><path class="j" d="m741.1 340.9h-13.1c-0.8-2-2.8-3.4-5.1-3.4-3 0-5.4 2.4-5.4 5.5 0 3 2.4 5.5 5.4 5.5 2.2 0 4.1-1.3 5-3.1h13.2z"/><path class="j" d="m837.7 345.1h13.2c0.8 2 2.7 3.4 5 3.4 3 0 5.5-2.5 5.5-5.5 0-3.1-2.5-5.5-5.5-5.5-2.2 0-4 1.3-4.9 3.1h-13.3z"/><path class="j" d="m837.7 361.5h13.2c0.8 2 2.7 3.4 5 3.4 3 0 5.5-2.5 5.5-5.5 0-3-2.5-5.5-5.5-5.5-2.2 0-4 1.3-4.9 3.1h-13.3z"/><path class="j" d="m837.7 378.9h13.2c0.8 1.9 2.7 3.3 5 3.3 3 0 5.5-2.4 5.5-5.4 0-3.1-2.5-5.5-5.5-5.5-2.2 0-4 1.2-4.9 3.1h-13.3z"/><path class="j" d="m837.7 396.6h13.2c0.8 2 2.7 3.4 5 3.4 3 0 5.5-2.5 5.5-5.5 0-3.1-2.5-5.5-5.5-5.5-2.2 0-4 1.3-4.9 3.1h-13.3z"/><path class="j" d="m764.9 320.7v-13.1c2-0.8 3.4-2.8 3.4-5.1 0-3-2.4-5.5-5.5-5.5-3 0-5.5 2.5-5.5 5.5 0 2.2 1.3 4.1 3.1 5v13.2z"/><path class="j" d="m781.4 320.7v-13.1c1.9-0.8 3.3-2.8 3.3-5.1 0-3-2.4-5.5-5.4-5.5-3.1 0-5.5 2.5-5.5 5.5 0 2.2 1.2 4.1 3.1 5v13.2z"/><path class="j" d="m798.7 320.7v-13.1c2-0.8 3.4-2.8 3.4-5.1 0-3-2.5-5.5-5.5-5.5-3 0-5.5 2.5-5.5 5.5 0 2.2 1.3 4.1 3.1 5v13.2z"/><path class="j" d="m816.4 320.7v-13.1c2-0.8 3.4-2.8 3.4-5.1 0-3-2.4-5.5-5.5-5.5-3 0-5.4 2.5-5.4 5.5 0 2.2 1.2 4.1 3 5v13.2z"/><path class="j" d="m812.2 418.6v13.1c-2 0.9-3.3 2.8-3.3 5.1 0 3 2.4 5.5 5.4 5.5 3.1 0 5.5-2.5 5.5-5.5 0-2.2-1.2-4-3.1-4.9v-13.3z"/><path class="j" d="m795.8 418.6v13.1c-2 0.9-3.4 2.8-3.4 5.1 0 3 2.5 5.5 5.5 5.5 3.1 0 5.5-2.5 5.5-5.5 0-2.2-1.3-4-3.1-4.9v-13.3z"/><path class="j" d="m778.5 418.6v13.1c-2 0.9-3.4 2.8-3.4 5.1 0 3 2.4 5.5 5.5 5.5 3 0 5.5-2.5 5.5-5.5 0-2.2-1.3-4-3.1-4.9v-13.3z"/><path class="j" d="m760.7 418.6v13.1c-2 0.9-3.4 2.8-3.4 5.1 0 3 2.5 5.5 5.5 5.5 3.1 0 5.5-2.5 5.5-5.5 0-2.2-1.2-4-3.1-4.9v-13.3z"/><path class="c" d="m474.6 755.5q-4.6 0-9.1 0.4v-6.2c0 0-0.8-6.2-11.1-6.2h-25.4c0 0-10.1 1-10.1 9.5v13.1l2.6 3.2c-33.4 18.7-56 54.3-56 95.3 0 60.2 48.8 109 109.1 109 60.2 0 109-48.8 109-109 0-60.3-48.8-109.1-109-109.1z"/><path class="l" d="m573.4 864.6c0 54.6-44.2 98.8-98.8 98.8-54.6 0-98.9-44.2-98.9-98.8 0-54.6 44.3-98.9 98.9-98.9 54.6 0 98.8 44.3 98.8 98.9z"/><path class="m" d="m538.4 869.7v-74.5l-35.3-15.9-33 12.8v-3.2c0 0 0.1-5.7-3.8-8.5-3.9-2.8-5.8-4.9-5.8-4.9v-3.3l3-4.7-35.5 6.7-3.9 7.3c0 0-0.2 0.4-0.6 0.9-1.1 1.8-3.4 6-3.4 10v74.1l-29 24.4c0 0-2.8 3.2 1.3 5.5 4.1 2.2 23.2 9.7 23.2 9.7v26.5l63.7 28.3 57.4-28.3v-25.5l27.9-13.4z"/><path class="n" d="m535.4 872.2l-29.8 11.3-34.4-15.2-0.1 4.3c-1.6 6.7-19 7.8-19 7.8-21.9 1.6-28.4-5.2-30.1-7.9l-0.7 0.1-3.2 2.3-24.5 18.2 70 31.3 15.2-17.4 0.1 50.2 54.6-25.7v-24.6l26.9-12.7z"/><path class="o" d="m445.2 832.9c8.9 0 16.1-1.5 20.6-2.8v-35.5c0-6.5-6.8-10-6.8-10l-4.2-2.8v-5.2c-2.4-1.1-5.8-1.5-9.3-1.7q-0.4 0-0.8 0-0.5 0-0.9 0c-3.5 0.2-6.9 0.6-9.3 1.7v5.2l-4.2 2.8c0 0-6.7 3.5-6.7 10v35.1c3.9 1.3 11.4 3.2 21.6 3.2z"/><path class="o" d="m465.8 834.4c-3.8 1.2-11 2.9-20.9 2.9-8.3 0-16-1.5-21.3-2.9v36.1c0 0-1.2 7.6 21 7.6q0 0 0.1 0 0 0 0 0 0 0 0 0c22.2 0 21.1-7.6 21.1-7.6z"/><path class="o" d="m433.2 773l0.8-2.1h20.8l1.9 2.3 1.7-1.9v-9l-2.1-2.1h-22.5l-2.6 2.6v9.4z"/><path class="p" d="m532.4 874.7l-57.1 26.5 19.1 17.7 57.7-26.7z"/><path class="p" d="m413.8 874.9l-19.7 15.6 64.9 29.1 16.3-18.4z"/><path class="q" d="m493.4 930.8l-11.9 6v9.1c0 0 0.9 3.1 3 2.3 2.1-0.9 9.3-4.8 9.3-4.8 0 0 1.5-0.8 1.5-2.5v-8.9z"/><path class="r" d="m417.1 903.4v25.5l57.8 26.3-0.2-50.2-15.1 17.4z"/><path class="s" d="m467.2 799.2l34.2 15.4 0.2 71.9-34.4-15.2z"/><path class="t" d="m501.7 783.7l-32.5 12.5 34.2 15.4 0.2 71.9 29.8-11.3 0.9-74.8zm-25.7 12.3l7-2.7 30.6 13.6-6.4 3zm40.1 9.7l-30.7-13.4 5.2-2.1 31.1 12.9 0.1 18.7-6.8 4-0.3-19.3z"/><path class="u" d="m511.5 804.9l-6.4 3-31.1-13.8 6.9-2.8z"/><path class="u" d="m483.4 790.3l30.7 13.5-1.4 0.8 0.3 19.3 6.8-4-0.1-18.7-31.1-13z"/><path class="j" d="m345 319.6c0 58.6-47.5 106.1-106 106.1-58.6 0-106.1-47.5-106.1-106.1 0-58.6 47.5-106.1 106.1-106.1 58.5 0 106 47.5 106 106.1z"/><path class="v" d="m334.3 319.6c0 52.7-42.7 95.4-95.3 95.4-52.7 0-95.4-42.7-95.4-95.4 0-52.7 42.7-95.4 95.4-95.4 52.6 0 95.3 42.7 95.3 95.4z"/><path class="a" d="m322.5 326.4v-19.6h-10.4q-1.1-4.1-3.1-7.8l7.1-8.2-14.7-12.2-5.7 6.3q-3.7-2.4-7.9-3.7v-9.3h-11.8l-0.9-1.7c-13.1-23.5-32.6-23.3-35.2-23.1-1-0.1-6-0.2-11.4-0.1h-3.1l-7.2 0.3q-1.3 0-2.4 0.2c-5.6 0.6-10.5 2.1-12.3 2.7l-4.8 2.6-0.5 0.3c-4.5 3-8.4 6.1-11.9 9.7l-0.5 0.5-0.4 0.5-0.9 0.9-0.7 0.8-1 1.3c-3.6 4.3-6.5 9-8.8 14.1l-0.9 2-0.3 0.9-1.1 2.8c-1.6 4.7-2.8 8.4-3.7 14.3l-0.3 1.7-0.7 7.3c-0.5 5.3-0.7 10.7-0.6 16l0.5 8.1c0.5 5.6 1.3 11 2.5 16.2l2.9 9.3c1.8 4.4 4.2 8.7 7.1 12.9l8 9.6c6 6.1 11.2 9.4 11.4 9.5l0.4 0.2c0.2 0.1 5.7 2.8 14.3 3.9l10.7 0.5q0.5 0 0.9-0.1c14.4-0.9 28-3.7 28.6-3.8l0.6-0.1 0.5-0.3c18.2-9.6 23.4-31 24.5-36.7l1.9 6 20.9-7.2-3-8.1q1-0.8 2-1.7l3.9 4.3 10.6-10.2-5.3-6.9q1-2.4 1.7-4.9z"/><path class="w" d="m318.5 322.4v-11.6h-9.6c-0.8-4.4-2.4-8.6-4.8-12.2l6.3-7.3-8.6-7.2-5.4 6.1c-3.7-2.9-8-4.9-12.6-6v-8.3h-13.7v8c-3.9 0.7-7.4 2.1-10.7 4l-5.1-5.6-9.2 6.3 5.3 7c-3.7 4.5-6.2 10.1-7.1 16.1h-7.7v12h8.2c0.7 3.2 1.8 6.2 3.4 8.9l-2.5 2.8 4.2 4.6 2.3-1.6c2 2.3 4.4 4.3 6.9 6l-4 8.2 9.6 4.7 4.9-8.5q3.6 0.9 7.6 0.9 2.8 0 5.4-0.4l2.2 6.7 13.1-4.5-2.6-7.2c2.5-1.6 4.9-3.7 6.9-6l4 4.4 5-4.9-4.6-6c1.5-2.9 2.6-6 3.2-9.4z"/><path class="m" d="m296.3 316.5c0 11.1-9 20.1-20.1 20.1-11.1 0-20.1-9-20.1-20.1 0-11.1 9-20.1 20.1-20.1 11.1 0 20.1 9 20.1 20.1z"/><path class="x" d="m291 316.5c0 8.2-6.6 14.8-14.8 14.8-8.2 0-14.8-6.6-14.8-14.8 0-8.2 6.6-14.8 14.8-14.8 8.2 0 14.8 6.6 14.8 14.8z"/><path class="y" d="m252.8 357.3c0 0-0.6 5.4-5.8 5.7-2.1 0.1-17-2.5-17.6-44.2-0.6-36.5 24-41.8 25.8-40.7 1.9 1.2 4.6 5.5 4.6 5.5l3.9-2.1-1.7-4.3c0 0-2.9-3.9-10.5-3.6-6.2 0.3-21.4 10.6-24.6 30-3.9 23.6-0.7 40.9 5.8 53.3 8.3 15.7 22.4 13.5 29.3 3.2z"/><path class="y" d="m200 277.6c2.2-4.7 4.6-8.9 7.1-12.6l-6.8-8.5c-3.3 2.2-7.2 5.1-11.1 9.1z"/><path class="y" d="m197.8 282.7l-11.9-13.4c-3.1 3.7-6 8.1-8.3 13.4l13.3 12.1-3.4 3.7-11.9-10.8q0 0.1-0.1 0.2c-1.6 4.6-2.9 10.3-3.8 16.6l15.2 12-3 3.9-12.9-10.1c-0.6 5.4-0.8 11.2-0.5 17.1l16.8 11-2.7 4.2-13.8-9c0.6 5.9 1.5 11.9 3 17.7l18.4 9.2-2.3 4.5-13.9-7c2.3 5.6 5.3 10.5 8.5 14.6l18.2 4.5c-7.3-12.2-13.5-30.3-12.6-56.1 0.5-15.2 3.5-27.9 7.7-38.3z"/><path class="y" d="m210.1 260.7c2.9-3.7 5.7-6.8 8.3-9.4q-1.2 0-2.1 0.1c-5.3 0.6-9.8 2-11.6 2.6z"/><path class="y" d="m270.1 353.1c0 0-6.3 12.4-11.4 16.3-5 3.9-19.4 7.2-28.4-7.8-9-14.9-13.3-42.6-6.1-64.9 7.3-22.2 18.8-25.4 27.4-26.5 8.6-1.2 11.8 4.6 11.8 4.6l3-1.9 5.2-0.7c-12.7-22.8-31.6-21.1-31.6-21.1 0 0-7-0.2-13.7-0.1-2.7 2.3-5.9 5.4-9.2 9.3l12.5-2.3 0.9 4.9-18 3.4c-3 4.3-6.1 9.5-8.7 15.4l14.2-4.8 1.6 4.8-18.2 6.1c-2.6 6.9-4.5 14.7-5.6 23.6l14.8-10.4 2.8 4.1-18.1 12.8q-0.1 1.6-0.2 3.3c-0.2 5.5 0 10.6 0.4 15.3l13.4-12.2 3.4 3.7-16.1 14.6c0.9 6.4 2.4 12.1 4.1 17.1l11.7-12.2 3.6 3.5-13.3 13.9c2.2 5.4 4.8 10 7.5 13.8l9.1-9.8 3.7 3.4-9.8 10.4c3.6 4.5 7.1 7.6 9.4 9.5q1.3-0.1 2.7-0.2c14.2-0.9 28-3.7 28-3.7 19.1-10.1 22.7-35.2 22.7-35.2z"/><path class="y" d="m206.7 383.3l-16.4-4.1c5.7 5.8 10.6 8.9 10.6 8.9 0 0 5.1 2.5 13.1 3.6-2.2-2.2-4.7-5-7.3-8.4z"/><path class="y" d="m250.6 343.6l1.4 2.1-3.4 6.1 2.2 2.4c0 0-2.2 3.3-3.5 3.5-1.2 0.1-10.4-5.8-11.8-19.4h6.8l5.7 7z"/><path class="y" d="m235.2 328.1h6.5l0.8 2.7-2.1 2.8-5.2 1z"/><path class="y" d="m241.4 294.2c0 0-3.7 4.8-4.8 11.1l2.8 0.2c0 0 1.6-5.4 4.1-8.9z"/><path class="z" d="m881.3 318.5c0 0 36.7-92.2 104.2-142.8 67.6-50.7 93.5-51.8 93.5-51.8 0 0-82.2 59.6-121.6 118.2-39.4 58.5-59.7 146.3-59.7 146.3 0 0 134 23.7 202.6-78.8 68.7-102.4 75.5-279.2 75.5-279.2 0 0-69.8 22.6-102.5 30.4-32.6 7.9-150.8 32.7-188 81.1-37.1 48.4-46.2 94.9-33.9 141.1 0 0 19.2 13.9 29.9 35.5z"/><path class="A" d="m964.1 436.1c-4.1-7.1-15-5.6-15-5.6l-45.5 7.9c-3.7-15.4-8.3-30.5-13.6-45.2-11.6 45.5-52.8 79.1-101.9 79.1-21 0-40.5-6.1-56.9-16.7l0.7 4.5-39.8 3c0 0-9.4 2.6-10.9 7.1-1.5 4.5 0.4 10.2 4.1 12.8 3.6 2.5 130.6 102 131.7 102.8 10.9 8.3 18.8-1.9 18.8-1.9l78.1-83.4 47.6-51.7c0 0 6.8-5.6 2.6-12.7z"/><path class="B" d="m605.2 128.1c16.6 19.4 26.5 44.6 26.5 72.1 0 31.1-12.7 59.2-33.3 79.3 33.7 13.5 63.7 33.5 88.7 58.6 12.6-43.9 53-76 101-76 10.1 0 19.9 1.4 29.2 4.1-54.4-65.9-128-115.1-212.1-138.1z"/><path class="C" d="m447 116.9c-82.6 10.3-157.9 45.2-218.6 97.1q5.2-0.5 10.6-0.5c55.2 0 100.5 42.2 105.6 96.1 26.2-19 55.9-33.2 88.1-41.4-14.6-18.8-23.3-42.4-23.3-68 0-33.2 14.6-62.9 37.6-83.3z"/><path class="D" d="m239 425.7c-55.4 0-100.9-42.4-105.7-96.5-34.9 61.5-55.1 132.2-55.6 206.9l81.7-83c5-5.1 13.1-5.6 18.8-1.2l52.5 40.5c4.5-23.5 11.6-46.2 21.1-67.5q-6.3 0.8-12.8 0.8z"/><path class="E" d="m205.2 577.8c23.3 0 44.9 7.2 62.8 19.6 22.3-2.8 37-4.6 37-4.6 0 0 7.9-2.9 10.1-6.2 2.3-3.4 1.7-6.2-6.7-14.1-4.8-4.5-139-106.4-139-106.4l-137.4 140.7c0 0-3.3 3.4-1.7 9.6 1.7 6.2 9.6 10.1 15.2 9 1.4-0.3 17.1-2.3 40.1-5.2 3 15.4 6.9 30.4 11.6 45.1 10.5-50 54.9-87.5 108-87.5z"/><path class="F" d="m744.1 844.5c-46.6 0-86.2-29.8-100.9-71.4-23.1 15.5-48.8 27.5-76.5 35.1 10.7 16.9 16.9 36.9 16.9 58.4 0 36.9-18.3 69.6-46.4 89.3 102.1-9.8 193.5-56.3 260.9-126.1-15.8 9.3-34.3 14.7-54 14.7z"/><path class="G" d="m850.9 737.6c0 11.5-1.8 22.7-5.2 33.1 44.2-66.4 69.9-146.1 69.9-231.8q0-9.3-0.4-18.6c-17.5 18.6-66.6 70.7-76.4 80.9-12 12.4-24.8 1.9-24.8 1.9l-49.3-39.8c-2.1 23.4-7 46.1-14.3 67.7 56.1 3.2 100.5 49.7 100.5 106.6z"/><path class="H" d="m365.5 866.6c0-26.6 9.6-51 25.4-69.9q-13.4-5.6-26.1-12.4c-26.9 43.5-56.6 94.6-71.7 120.8 33.3 18.6 69.5 32.7 107.6 41.7-21.6-20-35.2-48.5-35.2-80.2z"/><path class="H" d="m323.1 756.8q-10.4-8.3-19.9-17.5c-18.4 35.3-55.4 59.4-98 59.4-15.7 0-30.7-3.3-44.3-9.2 23.6 31.6 51.6 59.7 83 83.5 12.4-18.9 46.8-71.1 79.2-116.2z"/><path class="e" d="m850.9 737.6c0 59-47.8 106.9-106.8 106.9-59.1 0-106.9-47.9-106.9-106.9 0-59 47.8-106.8 106.9-106.8 59 0 106.8 47.8 106.8 106.8z"/><path class="I" d="m840.8 737.6c0 53.4-43.3 96.8-96.7 96.8-53.5 0-96.8-43.4-96.8-96.8 0-53.4 43.3-96.7 96.8-96.7 53.4 0 96.7 43.3 96.7 96.7z"/><path class="J" d="m739.5 738.2c-5-4.4-10.6-6.4-16.7-5.9-12.2 1-22 12.1-23.4 13.9-7.9 8.2-19.1 27-5.9 40.2 4.8 4.9 10.3 7.3 16.3 7.3q0.6 0 1.2 0c12.6-0.8 22.8-12.5 25.6-16.1 5-6.4 16.3-27.3 2.9-39.4z"/><path class="K" d="m709.8 790.2c-5 0-9.7-2.1-13.8-6.2-11.4-11.4-1.1-28.2 6-35.5 0.9-1.1 9.9-11.8 21.1-12.7 5.1-0.5 9.8 1.3 14 5 11.5 10.3 1.2 28.9-3.2 34.6-2.6 3.3-12 14.1-23.1 14.8q-0.5 0-1 0zm14.7-50.5q-0.5 0-1.1 0c-9.8 0.8-18.3 11.3-18.4 11.4l-0.1 0.1c-0.2 0.2-17.6 18.4-6.1 29.9 3.6 3.6 7.6 5.3 11.8 5.1 9.7-0.6 18.5-11.1 20.1-13.3 3.2-4 13.1-20.7 3.7-29.1-3-2.7-6.3-4.1-9.9-4.1z"/><path class="L" d="m707.6 753.8c0 0 13.8 3 20.2 17.7 0 0-14 17.7-25.3 8.9-10.9-8.6 5.1-26.6 5.1-26.6z"/><path class="J" d="m755.1 749.9c-3.8 4.2-5.5 9-5.1 14.3 0.9 10.5 10.4 18.9 12 20.1 7 6.8 23.2 16.5 34.6 5.1 4.2-4.2 6.3-8.9 6.3-14q0-0.5-0.1-1.1c-0.6-10.8-10.7-19.6-13.8-22-5.5-4.3-23.5-14-33.9-2.4z"/><path class="K" d="m799.9 775.4c0 4.3-1.8 8.3-5.4 11.8-9.8 9.8-24.2 1-30.5-5.1-1-0.8-10.2-8.6-11-18.2-0.3-4.4 1.1-8.4 4.4-12 8.8-9.9 24.8-1.1 29.7 2.8 2.9 2.2 12.2 10.2 12.7 19.8q0.1 0.4 0.1 0.9zm-43.5-12.7q0 0.5 0 1c0.7 8.4 9.7 15.7 9.8 15.8l0.1 0.1c0.2 0.1 15.8 15.1 25.7 5.2 3.1-3.1 4.6-6.5 4.4-10.1-0.5-8.4-9.6-15.9-11.4-17.3-3.5-2.8-17.9-11.3-25.1-3.2-2.3 2.6-3.5 5.4-3.5 8.5z"/><path class="L" d="m768.3 777c0 0 0.2-4.9 4.8-10.1 4.2-4.9 6-6 10.4-7.3 0 0 14.2 11.3 7.7 21.7-6.6 10.4-22.9-4.3-22.9-4.3z"/><path class="J" d="m795.1 726c1.9-6.4 1.3-12.3-1.8-17.6-6.2-10.6-20.4-14.6-22.7-15.1-10.7-3.6-32.5-5.6-38.8 12.1-2.3 6.4-2.1 12.4 0.4 17.8q0.3 0.5 0.6 1.1c6.1 11 21.2 15.1 25.6 16.1 7.9 1.8 31.6 2.9 36.7-14.4z"/><path class="M" d="m735.4 721.6c-2.2-4.5-2.3-9.5-0.3-15.1 5.4-15.2 24.9-13.1 34.6-9.9 1.4 0.4 14.9 3.9 20.6 13.5 2.6 4.5 3.1 9.5 1.5 14.9-4.4 14.8-25.5 13.6-32.6 12-4.1-0.9-17.9-4.7-23.3-14.4q-0.3-0.5-0.5-1zm52-8.4q-0.3-0.5-0.6-1c-4.9-8.5-18-11.7-18.1-11.7l-0.2-0.1c-0.3 0-24.2-7.9-29.6 7.5-1.7 4.8-1.5 9.1 0.5 12.8 4.7 8.5 18 11.8 20.6 12.4 5 1.1 24.4 2.8 27.9-9.2 1.2-3.9 1-7.5-0.5-10.7z"/><path class="N" d="m766.3 704.2c0 0 0 14.5-7.2 25.9 0 0-20.6-4.8-19-19 1.7-14.2 26.2-6.9 26.2-6.9z"/><path class="J" d="m675.3 730.4c4.6 4.8 10.1 7.1 16.2 7 12.3-0.1 22.7-10.6 24.3-12.3 8.4-7.6 20.8-25.6 8.5-39.7-4.5-5.2-9.8-8-15.7-8.4q-0.6 0-1.3 0c-12.6-0.1-23.5 10.9-26.6 14.3-5.4 6.1-18 26.2-5.4 39.1z"/><path class="M" d="m708.4 680.5c5 0.3 9.4 2.7 13.3 7.2 10.6 12.1-0.8 28.1-8.3 34.9-1 1.1-10.8 11.2-22 11.3-5.1 0.1-9.7-1.9-13.6-5.9-10.7-11.1 0.7-28.9 5.5-34.3 2.8-3.2 12.9-13.3 24-13.2q0.5 0 1.1 0zm-18.1 49.4q0.5 0 1.1 0c9.8-0.1 19-10 19.1-10.1l0.1-0.1c0.2-0.2 18.8-17.2 8.1-29.4-3.4-3.9-7.2-5.8-11.4-5.9-9.7 0-19.2 9.9-21 11.9-3.4 3.8-14.4 19.9-5.6 28.9 2.8 2.9 6 4.5 9.6 4.7z"/><path class="O" d="m690.3 729.9q0.5 0 1.1 0c9.8-0.1 19-10 19.1-10.1l0.1-0.1c0.2-0.2 18.8-17.2 8.1-29.4-3.4-3.9-7.2-5.8-11.4-5.9-9.7 0-19.2 9.9-21 11.9-3.4 3.8-14.4 19.9-5.6 28.9 2.8 2.9 6 4.5 9.6 4.7z"/><path class="P" d="m707.6 716.7c0 0-12.6-7.1-19-19 0 0 14.3-15.6 25.9-7.2 11.5 8.4-6.9 26.2-6.9 26.2z"/><path class="Q" d="m351.2 696c0-1.4-1.4-10.4-3.1-12.6-1.7-2.3-1.7-8.8-3.7-11.9-2-3-4.5-4.7-7-6.4-2.6-1.7-7.3-7.1-8.7-7.9-1.4-0.8-2.6-5.9-2.6-5.9 0 0-1.7-5.6-3.6-8.2-2-2.5-12.7-21.4-13.3-23.6-0.5-2.3 3.1-4.5 2-7.3-0.6-1.6-1.9-4.3-3-6.4q-0.6 0.2-1.1 0.3c-3.9 0.8-13 2.1-20.9 3.3 13.2 38.2 36.5 71.8 66.6 97.6l-1.6-6.2z"/><path class="R" d="m368.1 698.6c13.1-15 38.5-39.4 65.8-65.4-1-2-2.2-3.9-3.4-4.7-3.1-2-3.6-2.3-5.3-2.3-1.7 0-6.5 0.6-6.5 0.6 0 0-7.6-8.4-8.7-8.2-1.1 0.3-7.6 3.1-7.6 3.1 0 0-0.3-2.2 1.7-4.7 2-2.6-0.9-4.3-2.6-3.1-1.6 1.1-5.3 5.6-5.3 5.6 0 0-3.7-4-1.1-5.6 2.5-1.7 3.9-8.5 3.9-8.5l-2.2-5.1c0 0-7.9-7-7.1-7.3 0.9-0.3-6.4-1.9-7-3.3-0.6-1.5-11.3-12.1-11.3-12.1l-4.2-4.6c0 0 0.3-4.7-1.4-4.5-1.7 0.3-5.9 2.3-5.9 2.3l-11-4.5-3.4-2.3-5.9 7.9c0 0-2.8 1.1-1.9-2.8 0.8-3.9 2.8-5.3 1.9-7.6-0.8-2.2-6.2 0-6.2 0l-10 5.8c2.8 3.8 5.5 9.7 4.7 17.8-1.4 14.6-12.4 19-19.9 20.7 1.1 2.1 2.4 4.8 3 6.4 1.1 2.8-2.5 5-2 7.3 0.6 2.2 11.3 21.1 13.3 23.6 1.9 2.6 3.6 8.2 3.6 8.2 0 0 1.1 5.1 2.6 5.9 1.4 0.8 6.1 6.2 8.7 7.9 2.5 1.7 5 3.4 7 6.4 2 3.1 2 9.6 3.7 11.9 1.7 2.2 3.1 11.2 3.1 12.6v4.8l1.6 6.2q2.4 2 4.8 4c3.7-4.6 7.2-8.8 10.5-12.4z"/><path class="S" d="m421.5 718.5c0-0.8-2.8-5-1.4-7.3 1.4-2.2 11.6-1.7 13.3-4.5 1.6-2.8 2.5-5.6 2.5-5.6l1.5-16.4c-15.1 17.5-29.2 34.6-41.3 51.4q5.2 2.6 10.6 5c2-3.2 4-6.4 4.7-7.4 1.7-2.2 10.1-14.3 10.1-15.2z"/><path class="R" d="m305.6 551.6c1-3.2 2.4-7.5 3.1-8.7 1.1-1.9 0-5.6 0-5.6l-4.8-4.2c0 0-8.7 0.3-9.3-2l-0.6-2.2 7.1-12.7 0.8-6.8c0 0-3.4-1.4-6.7 0.3-3.4 1.7-4 2-5.4 3.7-1.4 1.7-4.2 5.6-6.2 5-1-0.2-5.1-1.8-8.7-3.1q-0.5 5.1-0.7 10.3z"/><path class="Q" d="m390.9 347.1c3.6 0 1.9 1.1 1.4 2.8-0.6 1.7 0.8 3.9 0.8 3.9 0 0 7.3-4.5 5.4-4.8-2-0.3-2-3.4-1.7-4.2 0.2-0.8 1.9-1.4 1.9-1.4 0 0-0.8-2.3-1.9-3.7-0.6-0.7-1.4-2.1-2-3.2q-8.1 4.2-15.8 9l1.4 4.7c0 0 6.8-3.1 10.5-3.1z"/><path class="T" d="m294.9 476.5c4.2 0 5 5.4 6.7 5.4 1.7 0 4.8 0.2 4.8 0.2 0 0-0.3-3.6 3.4-4.2 3.7-0.5 5.3 0.3 5.3 0.3l1.2 2.5c0 0 3.9 3.4 5 2.9 1.2-0.6 0.9 9.8 0.9 10.6 0 0.9 1.7 5.7 3.9 4.8 2.3-0.8 2-18.5 2.8-19.9 0.9-1.5 10.2-6.2 11.3-7.9 1.1-1.7 10.7-7.3 10.7-7.3l0.8-5.7c0 0 0.3-3.1 2.3-3.1 2 0 3.9 2.3 3.9 2.3l2-2.6c0 0 0.3-2.8 2.8-4.2 2.5-1.4 3.1-3.1 6.5-1.9 3.4 1.1 5.6 2.2 5.6 2.2l1.1-3.4 0.3-8.1c0 0 11.3-5.1 13.8-5.7 2.5-0.5 2.3 2 1.1 2.9-1.1 0.8-3.1 2.8-2.2 3.6 0.8 0.9 1.1 3.7 2.5 3.1 1.4-0.6 9.3-5.6 10.4-6.2 1.2-0.5 4.5-0.3 5.9-1.7 1.4-1.4-0.5-3.9-0.5-3.9 0 0-7.3 3.6-7.9-1.4-0.6-5.1 2.2-8.2 2.2-8.2 0 0 0.3-3.4-2.8-2.2-3.1 1.1-11.2 6.2-11.2 3.6 0-2.5 12.1-7.3 12.1-7.3 0 0 5 0 6.5 0.9 1.4 0.8 8.7 1.4 12.6-0.6 4-2 13-4.2 12.1-3.1-0.8 1.1-11.5 10.7-12.1 11.5-0.5 0.9-4.2 3.4-3.4 4.5 0.9 1.2 4.8 1.2 4.8 1.2 0 0 4.5 1.1 5.7 1.7 1.1 0.5 3.3 2.2 4.7 1.1 1.4-1.1 3.7-5.1 2.8-5.9-0.8-0.9-4.5-3.4-2.2-7.1 2.2-3.6 4.8-7.9 4.8-8.7 0-0.8-3.1-6.8-3.1-6.8 0 0-3.7-2.5-4-6.1-0.2-3.7 1.2-13 1.2-13l-3.1-2.2-3.1 3.6c0 0-4.2 0.6-3.7-1.1 0.6-1.7 1.7-6.2 1.7-6.2l-8.4-7-5.4-0.6h-1.9l-7.6 5.4c0 0-3.1 3.9-3.4 4.7-0.3 0.9-2.6 7.1-3.7 7.6-1.1 0.6-8.1 1.7-8.1 1.7l-3.4 5.9c0 0-7.1 10.2-7.6 8.8-0.6-1.5-1.1-4.5-0.3-6.2 0.8-1.7 2.8-7.4 2.8-7.4l-4.2-3.9-2-1.4c0 0-1.7-1.7-2.2-3.4-0.6-1.7-5.1-5.6-5.1-5.6 0 0 3.9-8.2 6.5-10.1 2.5-2 17.1-4 18.6-4.8 1.4-0.9 3.9-2 5.6-2.8 1.7-0.9 2.8-1.2 3.4 2.8 0.5 3.9 1.9 4.8 3.9 3.6 2-1.1 6.5-2.8 7-3.6 0.6-0.9-1.1-1.7-2.5-3.4-1.4-1.7 0-2.8 1.7-3.9 1.7-1.2 3.6-3.7 3.6-3.7 0 0-2.5-0.8-2.8-3.1l-0.2-2.2-5.4-1.2c0 0 8.4-6.4 10.1-7 1.7-0.6 4.5-2 4.5-2.8 0-0.9-3.3-1.7-3.3-1.7 0 0-4.8 2.8-6.8 2.2-1-0.2-3.4-1.5-5.5-2.6q-2.5 1.2-4.9 2.5c0.6 1.1 1.4 2.5 2 3.2 1.1 1.4 1.9 3.7 1.9 3.7 0 0-1.7 0.6-1.9 1.4-0.3 0.9-0.3 3.9 1.7 4.2 1.9 0.3-5.4 4.8-5.4 4.8 0 0-1.4-2.2-0.8-3.9 0.5-1.7 2.2-2.8-1.4-2.8-3.7 0-10.5 3.1-10.5 3.1l-1.4-4.7c-49.9 31.6-86.6 82.2-99.8 141.7 2.3-1.6 4.6-3.4 5.8-4.5 3.1-2.8 5.7-6.2 9.9-6.2z"/><path class="U" d="m599.4 733.5c0.3-3.4 0-6.2 0-6.2 0 0 1.4-3.1 1.4-4.8 0-1.7-0.6-3.1-0.6-3.1 0 0-5-6.5-6.2-11.8-1.1-5.4-1.4-7.1-0.8-9.9 0.6-2.8 1.1-3.4 1.4-4.2 0.3-0.8 5.9-7.9 5.9-7.9 0 0 0.3-7 0.9-10.7 0.5-3.6 0.8-3.9 0.5-5.3-0.3-1.4-2.8-1.4-3.1-2.8-0.2-1.4-1.4-7.4-1.4-7.4l-4.2-10.6-2.8-5.4-1.1-4.2 1.1-5.9 1.1-6.5-0.5-3.9-2.9-1.4-8.4-0.9-1.7-2.8c0 0-3.9-5.4-6.5-6.5-2.5-1.1-7.3 0.9-8.1 1.1-0.9 0.3-5.4 4-5.4 4l-5.9 1.4-5.3-3.4h-3.7c0 0-4.2 5.1-6.7 5.1-2.6 0-8.2-1.4-9.9-3.1-1.7-1.7-9.8-6.8-10.4-7.9-0.4-0.8-3.1-6.1-4.8-9.4-24 29.4-50.1 57.9-73.9 85.6l-1.5 16.4c0 0-0.9 2.8-2.5 5.6-1.7 2.8-11.9 2.3-13.3 4.5-1.4 2.3 1.4 6.5 1.4 7.3 0 0.9-8.4 13-10.1 15.2-0.7 1-2.7 4.2-4.7 7.4 28.1 12.7 59.3 19.8 92.2 19.8 36.3 0 70.5-8.6 100.9-23.9-0.3-1.2-0.5-2.5-0.4-3.5z"/><path class="U" d="m713.7 587.7c-0.9-2.6-2-2.3-3.4-4.8-1.4-2.5-4-5.3-5.1-8.4-1.1-3.1-2.8-7.1-2.8-7.1 0 0-9.3-9.8-9.6-11.8-0.3-2-0.8-8.2-1.1-9.3-0.3-1.1-2-4.5-2-4.5l-8.4-6.5-1.4-5-1.1-5.4c0 0-3.7 5.9-4.8 5.1-1.2-0.9-3.7-3.4-3.7-3.4l0.6 2.9c0 0 6.2 7.8 6.7 8.6 0.6 0.9 5.9 8.8 5.9 8.8 0 0 2.6 15.5 5.7 18.8 3.1 3.4 6.4 5.9 6.4 5.9 0 0 1.5 5.1 2.6 7.4 1.1 2.2 5 7.3 5 7.3l4.8 6.4 6.6 7.1q1.4-4.8 2.6-9.7c-1.7-0.5-3.2-1.4-3.5-2.4z"/><path class="S" d="m703.2 586.3c0 0-3.9-5.1-5-7.3-1.1-2.3-2.6-7.4-2.6-7.4 0 0-3.3-2.5-6.4-5.9-3.1-3.3-5.7-18.8-5.7-18.8 0 0-5.3-7.9-5.9-8.8-0.5-0.8-6.7-8.6-6.7-8.6l-0.6-2.9c0 0 2.5 2.5 3.7 3.4 1.1 0.8 4.8-5.1 4.8-5.1l1.1 5.4 1.4 5 8.4 6.5c0 0 1.7 3.4 2 4.5 0.3 1.1 0.9 7.3 1.1 9.3 0.3 2 9.6 11.8 9.6 11.8 0 0 1.7 4 2.8 7.1 1.1 3.1 3.7 5.9 5.1 8.4 1.4 2.5 2.5 2.2 3.4 4.8 0.3 1 1.8 1.9 3.5 2.4 4.3-17.3 6.6-35.5 6.6-54.2q0-1.7 0-3.4l-44.9-36c0 0-12.8-9.9-13.2-23.2l-12.3 1.8-4.8 2.8c0 0-1.1 3.1-1.1 4.5 0 1.4 0.3 2 0.3 3.7 0 1.7 6.2 7.9 6.2 7.9l5.9 0.5c0 0 3.9-0.5 7.6 0 3.7 0.6 1.4 3.4 1.4 3.4 0 0 1.1 3.4 2.8 3.7 1.7 0.2 2.8-2.6 5.1-2.6 2.2 0 2 6.2 2 6.2 0 0-0.6 5.9-1.7 7.9-1.2 2-2.8 1.7-2.8 1.7 0 0-6.8 0.8-9.3 1.1-2.6 0.3-13.8-0.8-13.8-0.8l-3.4-2.3c0 0-8.7-4.5-12.4-3.6-3.6 0.8-5.9 3.6-5.9 3.6 0 0-1.1 4-3.1 5.4-2 1.4-10.4-2.6-12.9-4.5-2.6-2-2.8-5.7-2.8-5.7 0 0-2.6-0.8-4.3-1.7-1.7-0.8-4.8 0.6-4.8 0.6l-3-1.7c0 0-3.1-4.2-3.1-5 0-0.9 0.8-2.3 1.9-3.1 1.2-0.9 0.9-4.3 0.9-4.3 0 0-0.9-3.3-2.6-4.2-1.7-0.8-7.6 0-7.6 0l-9.1 0.7c-5.8 16.4-15.3 36.6-30.8 60.1-11.1 16.8-23.7 33.4-36.9 49.7 1.7 3.3 4.4 8.6 4.8 9.4 0.6 1.1 8.7 6.2 10.4 7.9 1.7 1.7 7.3 3.1 9.9 3.1 2.5 0 6.7-5.1 6.7-5.1h3.7l5.3 3.4 5.9-1.4c0 0 4.5-3.7 5.4-4 0.8-0.2 5.6-2.2 8.1-1.1 2.6 1.1 6.5 6.5 6.5 6.5l1.7 2.8 8.4 0.9 2.9 1.4 0.5 3.9-1.1 6.5-1.1 5.9 1.1 4.2 2.8 5.4 4.2 10.6c0 0 1.2 6 1.4 7.4 0.3 1.4 2.8 1.4 3.1 2.8 0.3 1.4 0 1.7-0.5 5.3-0.6 3.7-0.9 10.7-0.9 10.7 0 0-5.6 7.1-5.9 7.9-0.3 0.8-0.8 1.4-1.4 4.2-0.6 2.8-0.3 4.5 0.8 9.9 1.2 5.3 6.2 11.8 6.2 11.8 0 0 0.6 1.4 0.6 3.1 0 1.7-1.4 4.8-1.4 4.8 0 0 0.3 2.8 0 6.2-0.1 1 0.1 2.3 0.4 3.5 14.6-7.4 28.3-16.2 40.9-26.5 7.9-30.5 29-55.7 56.9-69.1 7-13.2 12.7-27.1 17-41.6l-6.6-7.1z"/><path class="V" d="m530.7 538.1c12.9-14.7 24.1-31.1 33.1-46.4-2.7 0.7-6.9 1.7-7.5 1.7-0.8 0-8.4 0.8-8.4 0.8l-4.5-1.4c0 0-1.7 2.3-2 3.1-0.3 0.9-0.8 1.7-4.8 4.8-3.9 3.1-8.1 5.6-8.1 5.6l-0.6 5.4-2.5 5.9c0 0-3.7 2.8-4.8 3.9-1.1 1.2-4.5 3.4-6.5 5.7-1.9 2.2-3.9 5.6-3.9 5.6l-4.8 5.6c0 0-1.4 3.4-2.3 5.1-0.8 1.7-2.5 5.3-2.5 5.3 0 0 0.9 7.9 0.9 10.7 0 1.7 0.3 5.4 0.7 8.3 11.8-11.7 21.8-21.9 28.5-29.7z"/><path class="W" d="m640.8 475.7l-2.3 4.5 3.1 6.4-1.1 2c-1.1 2-0.9 4.2-1.7 5.1-0.9 0.8-7.3-2-7.3-2l-2.6-9-1.9-0.6-4.8-11.8-12.4-7.9c0 0-1.7-7-4.5-7.3-2.8-0.3-2.8 2.8-2.8 2.8l4.5 6.8 2.8 4.2c0 0 7 3.7 8.2 6.8 1.1 3.1-4.3 9.8-4.3 9.8 0 0-0.5 1.7-0.5 2.8 0 1.2-1.7 2.3-4.2 2.3-2.6 0-7.4-2.8-7.1-4.5 0.3-1.7 7.9-1.4 7.9-1.4 0 0 2.3-4.2 2.5-5.4 0.3-1.1-7-5.3-7-5.3 0 0-6.2-3.7-7.3-5.1-1.1-1.4-3.7-7.9-3.7-7.9l-6.7 1.4-1.3-0.5c-1.3 7.3-3.5 16.5-7.3 27.4l9.1-0.7c0 0 5.9-0.8 7.6 0 1.7 0.9 2.6 4.2 2.6 4.2 0 0 0.3 3.4-0.9 4.3-1.1 0.8-1.9 2.2-1.9 3.1 0 0.8 3.1 5 3.1 5l3 1.7c0 0 3.1-1.4 4.8-0.6 1.7 0.9 4.3 1.7 4.3 1.7 0 0 0.2 3.7 2.8 5.7 2.5 1.9 10.9 5.9 12.9 4.5 2-1.4 3.1-5.4 3.1-5.4 0 0 2.3-2.8 5.9-3.6 3.7-0.9 12.4 3.6 12.4 3.6l3.4 2.3c0 0 11.2 1.1 13.8 0.8 2.5-0.3 9.3-1.1 9.3-1.1 0 0 1.6 0.3 2.8-1.7 1.1-2 1.7-7.9 1.7-7.9 0 0 0.2-6.2-2-6.2-2.3 0-3.4 2.8-5.1 2.6-1.7-0.3-2.8-3.7-2.8-3.7 0 0 2.3-2.8-1.4-3.4-3.7-0.5-7.6 0-7.6 0l-5.9-0.5c0 0-6.2-6.2-6.2-7.9 0-1.7-0.3-2.3-0.3-3.7 0-1.4 1.1-4.5 1.1-4.5l-5.3-1.9z"/><path class="W" d="m667.2 452.6c0 0-3.9-3.7-6.7-2-2.8 1.7-3.4 5.1-5.1 6.8-1.7 1.7-2.3 10.1-2.3 10.1l0.6 4.2-5.1 6.2 4.8-2.8 12.3-1.8c0-2.4 0.3-5 1.2-7.6 1.1-2.8 2.5-5.2 4.1-7.1l-0.4-0.9z"/><path class="Q" d="m644.1 370.4c-0.8 3.7 6 5.1 8.8 6.5 1.2 0.6 2.4-0.4 3.2-1.8q-4.5-4.4-9.3-8.6c-1.1 1-2.3 2.3-2.7 3.9z"/><path class="W" d="m683 450.9c0 0 0.8-1.7 1.1-3.9 0.3-2.3-3.9 0.5-5.6 1.1-1.7 0.6-3.7 1.1-6.2 2.8-1.4 1 0.3 3 2 4.6 2.9-2.2 6.1-3.5 8.9-4.2z"/><path class="X" d="m672.3 450.9c2.5-1.7 4.5-2.2 6.2-2.8 1.7-0.6 5.9-3.4 5.6-1.1-0.3 2.2-1.1 3.9-1.1 3.9l0.2 0.4c4.9-1.3 8.9-1 8.9-1l14.3-1.3c-11.7-27.9-28.9-53-50.3-73.9-0.8 1.4-2 2.4-3.2 1.8-2.8-1.4-9.6-2.8-8.8-6.5 0.4-1.6 1.6-2.9 2.7-3.9q-4.2-3.7-8.6-7.2c-5.1-0.4-12.9-1.3-14-1.8-1.7-0.9-8.8 1.7-10.7 1.7-2 0-5.9 0.5-5.9 0.5l-3.1 2c0 0-3.4 5.6-4.8 9.3-1.4 3.6-2.3 5.3-2.3 5.3l-5 4.2c0 0-11 6.5-11.3 7.4-0.3 0.8-0.6 7.3-0.3 9.5 0.3 2.3 2.3 8.8 4.8 8.8 2.5 0 4.5 0 5.1-1.2 0.5-1.1 3.3-4.7 4.2-3.9 0.8 0.8 3.4 7.9 3.7 8.7 0.2 0.9 1.9 4 3.9 4.5 2 0.6 4.5 1.1 4.5 1.1 0 0 2-3.9 3.9-6.4 2-2.6 1.4-4 3.1-6.2 1.7-2.3 0.9 0 1.7-2.3 0.9-2.2-1.7-5.6-2.2-6.7-0.6-1.2-2.6-4.2-2.6-4.2l1.4-2.9c0 0 6.8-4.7 7.4-6.2 0.5-1.4 2.2-4.7 2.2-4.7 0 0 0.6-2 3.1 0 2.5 1.9 3.1 3.6 3.1 3.6l-7 8.2 3.1 7.3 1.1 2c0 0 12.9-0.3 14.3-0.9 1.4-0.5 5.4-1.9 6.5 0 1.1 2-3.6 4.5-3.6 4.5h-11c0 0-2.3 1.4-0.9 3.4 1.4 2 2.6 3.9 2.6 3.9l-7.1-1.6-3.3 5.3-1.7 4.5-0.3 3.4h-3.4l-4.5-0.6-3.4 2-8.4-1.7-5.6 2.5-2-7c0 0-0.3-5.3-2.5-4.2-2.3 1.1-2.9 3.4-2.9 3.4l2.3 8.7-6.8 0.5-3.3 1.7-6 5.1-4.7 3.7c0 0-3.4 2.8-4.3 2.8-0.8 0-5.6 1.7-5.6 1.7l-4.8 1.4-5.9 2.5 6.5 3.1 3.1 2 1.4 8.1-6.5 7.1c0 0-7.6-2-8.4-2-0.9 0-5.4 1.1-5.4 1.1 0 0-4.2-0.5-4.5 1.1-0.3 1.7-0.8 4.3-0.8 4.3v3.9l-3.1 7.3 3.1 6.5 3.4 2.8 6.4 1.4 5.7-0.5 11.8-5.7c0 0 1.1-5.9 1.7-6.7 0.5-0.9 3.4-3.4 3.4-3.4l3.6-3.4 5.4-5.9 3.6-1.2c3.9-8.7 6.7-16 8.2-21 0 0 1 7.3-1.3 21.1l1.3 0.5 6.7-1.4c0 0 2.6 6.5 3.7 7.9 1.1 1.4 7.3 5.1 7.3 5.1 0 0 7.3 4.2 7 5.3-0.2 1.2-2.5 5.4-2.5 5.4 0 0-7.6-0.3-7.9 1.4-0.3 1.7 4.5 4.5 7.1 4.5 2.5 0 4.2-1.1 4.2-2.3 0-1.1 0.5-2.8 0.5-2.8 0 0 5.4-6.7 4.3-9.8-1.2-3.1-8.2-6.8-8.2-6.8l-2.8-4.2-4.5-6.8c0 0 0-3.1 2.8-2.8 2.8 0.3 4.5 7.3 4.5 7.3l12.4 7.9 4.8 11.8 1.9 0.6 2.6 9c0 0 6.4 2.8 7.3 2 0.8-0.9 0.6-3.1 1.7-5.1l1.1-2-3.1-6.4 2.3-4.5 2.5 0.3 5.3 1.9 5.1-6.2-0.6-4.2c0 0 0.6-8.4 2.3-10.1 1.7-1.7 2.3-5.1 5.1-6.8 2.8-1.7 6.7 2 6.7 2l3.4 5.1 0.4 0.9q1.5-1.8 3.3-3.1c-1.7-1.6-3.4-3.6-2-4.6z"/><path class="Y" d="m545.4 425.8c0 0 2.4-1.7 3-3.2 0.5-1.5 0.7-1.9 1.1-3.8 0.4-1.9-0.4-5.2-0.4-5.2 0 0-5.8-0.8-7.9 0.5-2 1.3-3.3 0.6-3.5 2.5-0.2 1.8 0 3.2 0 3.2 0 0-3.4 0.9-2.8 3.7 0.5 2.8 5.4 5.1 5.4 5.1z"/><path class="Y" d="m551.7 409.6c0 0 1 2.3 1.9 2.7 1 0.3 2.5 1.5 3 4.8 0.6 3.4-4.9 2.5-4.3 4.9 0.6 2.5-0.9 2.5 0.6 3.4 1.5 0.9 2.6 1.3 2.8 2.2 0.2 1-3.6 1.7-4.3 3.2-0.8 1.5-1.3 3.6 1.7 3 3-0.5 7.3-2.4 7.3-2.4l1.7-1.3c0 0 3.7-0.6 4.6-1.1 1-0.6 2.1-0.6 2.5-1.5 0.4-1 0.4-4.6 0.4-4.6l-4.5-6.5c0 0-1.4-1.1-1.7-2.8-0.4-1.7-0.2-3-0.2-3.6 0-0.6-2.5-4.1-2.5-4.1 0 0 0.4-4.5-0.1-5.7-0.6-1.1-2.1-1.6-3.4-1.3-1.3 0.4-5.8 0.2-6.8 2.5-0.9 2.2 0.2 5.2 1.3 8.2z"/><path class="Q" d="m646.1 396c-1.1-1.9-5.1-0.5-6.5 0-1.4 0.6-14.3 0.9-14.3 0.9l-1.1-2-3.1-7.3 7-8.2c0 0-0.6-1.7-3.1-3.6-2.5-2-3.1 0-3.1 0 0 0-1.7 3.3-2.2 4.7-0.6 1.5-7.4 6.2-7.4 6.2l-1.4 2.9c0 0 2 3 2.6 4.2 0.5 1.1 3.1 4.5 2.2 6.7-0.8 2.3 0 0-1.7 2.3-1.7 2.2-1.1 3.6-3.1 6.2-1.9 2.5-3.9 6.4-3.9 6.4 0 0-2.5-0.5-4.5-1.1-2-0.5-3.7-3.6-3.9-4.5-0.3-0.8-2.9-7.9-3.7-8.7-0.9-0.9-3.7 2.8-4.2 3.9-0.6 1.2-2.6 1.2-5.1 1.2-2.5 0-4.5-6.5-4.8-8.8-0.3-2.2 0-8.7 0.3-9.5 0.3-0.9 11.3-7.4 11.3-7.4l5-4.2c0 0 0.9-1.7 2.3-5.3 1.4-3.7 4.8-9.3 4.8-9.3l3.1-2c0 0 3.9-0.5 5.9-0.5 1.9 0 9-2.6 10.7-1.7 1.1 0.5 8.9 1.4 14 1.8-16.6-13.1-35.1-23.9-55-32 2.9 5 6 9.6 7.2 13.5 3.1 9.9 5.5 20.7-2.8 31.3-5.9 7.5-17.3 13.5-29.9 11.3-6.2-1.2-10.9-3.4-14.4-6.2-2.6 2-5.7 4.3-6.6 4.1-1.5-0.4-9.2-1.1-9.4-1.7-0.1-0.6-0.3-4.3-0.5-4.9-0.2-0.5-0.6-2.4 0.4-3.2 0.9-0.7-1.7-2.2 3.7-2 4.6 0.1 6.3 2.2 7.4 2.1-2.9-4.5-4-9.5-4.4-13.8l-11.4 3.6-7.3 3.8-10.9 3.9-5.8 2.6-4.2-0.2c0 0-8.4 2.7-9.5 4.9-1.2 2.3-8.5 13-10 12.4-1.5-0.6-3.6-3-4.7-3.7-1.1-0.8-4.7-0.2-5-1.2-0.4-0.9-1.7-7.7-1.7-7.7l2-5.8c0 0 1.3-2.6 1.9-3.9 0.6-1.3 1.3-2.7 2.1-3.8 0.7-1.1 1.7-2 2.6-2.4 0.9-0.4 3.4-0.8 4.1-1.3 0.8-0.6 4.2-4 4.2-4l1.6-3.3c0 0-3.3-1.5-3.1-2.3 0.1-0.7 1.5-3.2 1.5-3.2 0 0 1.6-1.9 1.6-2.4 0-0.6-2-0.6-1.3-2.1 0.8-1.5 1.9-3.2 1.9-3.2l0.4-3.4q-0.7-0.1-1.4-0.1c-9.3-1.1-15-4.5-18.6-8.5-2.1 0.7-4.8 1.5-5.2 1.5-0.5 0-5.2 0.8-5.2 0.8 0 0-4.1 3.7-4.7 4.1-0.6 0.4-5.1 0.9-5.1 0.9l-6.7-1.3c0 0-6 1.9-7.3 1.7-1.4-0.2-4.7-0.9-4.7-0.9 0 0-8.7-1.2-6.4-3l2.2-1.9c0 0 5.3 3.2 8.3 3.2 3 0 5.6-0.6 5.6-0.6 0 0 2.7-1.7 4.2-2 1.5-0.4 3.9-0.8 3.9-0.8l-1.3-1.5c0 0-4.5-0.9-4.5-2.4 0-0.7 0.3-2.6 0.7-4.6q-2.9 0.8-5.9 1.8c-0.5 1.1-0.6 2.1-0.1 2.8 2.1 2.4 4.3 2.8 4.3 2.8 0 0-2.6 3-3.9 2.4-1.3-0.5-7.1-2.2-7.1-2.2l-0.5-3.4q-12.2 4.4-23.8 10.1c2.1 1.1 4.5 2.4 5.5 2.6 2 0.6 6.8-2.2 6.8-2.2 0 0 3.3 0.8 3.3 1.7 0 0.8-2.8 2.2-4.5 2.8-1.7 0.6-10.1 7-10.1 7l5.4 1.2 0.2 2.2c0.3 2.3 2.8 3.1 2.8 3.1 0 0-1.9 2.5-3.6 3.7-1.7 1.1-3.1 2.2-1.7 3.9 1.4 1.7 3.1 2.5 2.5 3.4-0.5 0.8-5 2.5-7 3.6-2 1.2-3.4 0.3-3.9-3.6-0.6-4-1.7-3.7-3.4-2.8-1.7 0.8-4.2 1.9-5.6 2.8-1.5 0.8-16.1 2.8-18.6 4.8-2.6 1.9-6.5 10.1-6.5 10.1 0 0 4.5 3.9 5.1 5.6 0.5 1.7 2.2 3.4 2.2 3.4l2 1.4 4.2 3.9c0 0-2 5.7-2.8 7.4-0.8 1.7-0.3 4.8 0.3 6.2 0.5 1.4 7.6-8.8 7.6-8.8l3.4-5.9c0 0 7-1.1 8.1-1.7 1.1-0.5 3.4-6.7 3.7-7.6 0.3-0.8 3.4-4.7 3.4-4.7l7.6-5.4h1.9l5.4 0.6 8.4 7c0 0-1.1 4.5-1.7 6.2-0.5 1.7 3.7 1.1 3.7 1.1l3.1-3.6 3.1 2.2c0 0-1.4 9.3-1.2 13 0.3 3.6 4 6.2 4 6.2 0 0 3.1 5.9 3.1 6.7 0 0.9-2.5 5.1-4.8 8.7-2.3 3.7 1.4 6.2 2.3 7.1 0.8 0.8-1.5 4.8-2.9 5.9-1.4 1.1-3.6-0.6-4.8-1.1-1.1-0.6-5.6-1.7-5.6-1.7 0 0-3.9 0-4.8-1.2-0.8-1.1 2.9-3.6 3.4-4.5 0.6-0.8 11.3-10.4 12.1-11.5 0.9-1.1-8.1 1.1-12.1 3.1-3.9 2-11.2 1.4-12.6 0.6-1.5-0.9-6.5-0.9-6.5-0.9 0 0-12.1 4.8-12.1 7.3 0 2.6 8.1-2.5 11.2-3.6 3.1-1.2 2.8 2.2 2.8 2.2 0 0-2.8 3.1-2.2 8.2 0.6 5 7.9 1.4 7.9 1.4 0 0 1.9 2.5 0.5 3.9-1.4 1.4-4.7 1.2-5.9 1.7-1.1 0.6-9 5.6-10.4 6.2-1.4 0.6-1.7-2.2-2.5-3.1-0.9-0.8 1.1-2.8 2.2-3.6 1.2-0.9 1.4-3.4-1.1-2.9-2.5 0.6-13.8 5.7-13.8 5.7l-0.3 8.1-1.1 3.4c0 0-2.2-1.1-5.6-2.2-3.4-1.2-4 0.5-6.5 1.9-2.5 1.4-2.8 4.2-2.8 4.2l-2 2.6c0 0-1.9-2.3-3.9-2.3-2 0-2.3 3.1-2.3 3.1l-0.8 5.7c0 0-9.6 5.6-10.7 7.3-1.1 1.7-10.4 6.4-11.3 7.9-0.8 1.4-0.5 19.1-2.8 19.9-2.2 0.9-3.9-3.9-3.9-4.8 0-0.8 0.3-11.2-0.9-10.6-1.1 0.5-5-2.9-5-2.9l-1.2-2.5c0 0-1.6-0.8-5.3-0.3-3.7 0.6-3.4 4.2-3.4 4.2 0 0-3.1-0.2-4.8-0.2-1.7 0-2.5-5.4-6.7-5.4-4.2 0-6.8 3.4-9.9 6.2-1.2 1.1-3.5 2.9-5.8 4.5q-3 13.7-4.3 28.1c3.6 1.3 7.7 2.9 8.7 3.1 2 0.6 4.8-3.3 6.2-5 1.4-1.7 2-2 5.4-3.7 3.3-1.7 6.7-0.3 6.7-0.3l-0.8 6.8-7.1 12.7 0.6 2.2c0.6 2.3 9.3 2 9.3 2l4.8 4.2c0 0 1.1 3.7 0 5.6-0.7 1.2-2.1 5.5-3.1 8.7l12.7 10.6c0 0 2.6 1.7 5.1 5.1l10-5.8c0 0 5.4-2.2 6.2 0 0.9 2.3-1.1 3.7-1.9 7.6-0.9 3.9 1.9 2.8 1.9 2.8l5.9-7.9 3.4 2.3 11 4.5c0 0 4.2-2 5.9-2.3 1.7-0.2 1.4 4.5 1.4 4.5l4.2 4.6c0 0 10.7 10.6 11.3 12.1 0.6 1.4 7.9 3 7 3.3-0.8 0.3 7.1 7.3 7.1 7.3l2.2 5.1c0 0-1.4 6.8-3.9 8.5-2.6 1.6 1.1 5.6 1.1 5.6 0 0 3.7-4.5 5.3-5.6 1.7-1.2 4.6 0.5 2.6 3-2 2.6-1.7 4.8-1.7 4.8 0 0 6.5-2.8 7.6-3.1 1.1-0.2 8.7 8.2 8.7 8.2 0 0 4.8-0.6 6.5-0.6 1.7 0 2.2 0.3 5.3 2.3 1.2 0.8 2.4 2.7 3.4 4.7 23.5-22.4 48.5-45.9 68.3-65.4-0.4-2.9-0.7-6.6-0.7-8.3 0-2.8-0.9-10.7-0.9-10.7 0 0 1.7-3.6 2.5-5.3 0.9-1.7 2.3-5.1 2.3-5.1l4.8-5.6c0 0 2-3.4 3.9-5.6 2-2.3 5.4-4.5 6.5-5.7 1.1-1.1 4.8-3.9 4.8-3.9l2.5-5.9 0.6-5.4c0 0 4.2-2.5 8.1-5.6 4-3.1 4.5-3.9 4.8-4.8 0.3-0.8 2-3.1 2-3.1l4.5 1.4c0 0 7.6-0.8 8.4-0.8 0.6 0 4.8-1 7.5-1.7 6.3-10.8 11.6-21.1 15.6-29.9l-3.6 1.2-5.4 5.9-3.7 3.4c0 0-2.8 2.5-3.3 3.4-0.6 0.8-1.7 6.7-1.7 6.7l-11.8 5.7-5.7 0.5-6.4-1.4-3.4-2.8-3.1-6.5 3.1-7.3v-3.9c0 0 0.5-2.6 0.8-4.3 0.3-1.6 4.5-1.1 4.5-1.1 0 0 4.5-1.1 5.4-1.1 0.8 0 8.4 2 8.4 2l6.5-7.1-1.4-8.1-3.1-2-6.5-3.1 5.9-2.5 4.8-1.4c0 0 4.8-1.7 5.6-1.7 0.9 0 4.3-2.8 4.3-2.8l4.7-3.7 6-5.1 3.3-1.7 6.8-0.5-2.3-8.7c0 0 0.6-2.3 2.9-3.4 2.2-1.1 2.5 4.2 2.5 4.2l2 7 5.6-2.5 8.4 1.7 3.4-2 4.5 0.6h3.4l0.3-3.4 1.7-4.5 3.3-5.3 7.1 1.6c0 0-1.2-1.9-2.6-3.9-1.4-2 0.9-3.4 0.9-3.4h11c0 0 4.7-2.5 3.6-4.5z"/><path class="Y" d="m431.1 329.5c1.3 0.6 3.9-2.4 3.9-2.4 0 0-2.2-0.4-4.3-2.8-0.5-0.7-0.4-1.7 0.1-2.8q-3.7 1.1-7.3 2.4l0.5 3.4c0 0 5.8 1.7 7.1 2.2z"/><path class="Y" d="m436.7 319.7c-0.4 2-0.7 3.9-0.7 4.6 0 1.5 4.5 2.4 4.5 2.4l1.3 1.5c0 0-2.4 0.4-3.9 0.8-1.5 0.3-4.2 2-4.2 2 0 0-2.6 0.6-5.6 0.6-3 0-8.3-3.2-8.3-3.2l-2.2 1.9c-2.3 1.8 6.4 3 6.4 3 0 0 3.3 0.7 4.7 0.9 1.3 0.2 7.3-1.7 7.3-1.7l6.7 1.3c0 0 4.5-0.5 5.1-0.9 0.6-0.4 4.7-4.1 4.7-4.1 0 0 4.7-0.8 5.2-0.8 0.4 0 3.1-0.8 5.2-1.5-3.8-4.1-5.1-8.8-5.6-11.7q-10.5 2-20.6 4.9z"/><path class="Y" d="m538.3 371.6c-1.1 0.1-2.8-2-7.4-2.1-5.4-0.2-2.8 1.3-3.7 2-1 0.8-0.6 2.7-0.4 3.2 0.2 0.6 0.4 4.3 0.5 4.9 0.2 0.6 7.9 1.3 9.4 1.7 0.9 0.2 4-2.1 6.6-4.1-2-1.7-3.7-3.6-5-5.6z"/><path class="T" d="m534.4 347.9c-25.6-1.4-23.7-28.1-23.7-28.1 0 0-6.7 16.8-27.8 15.3l-0.4 3.4c0 0-1.1 1.7-1.9 3.2-0.7 1.5 1.3 1.5 1.3 2.1 0 0.5-1.6 2.4-1.6 2.4 0 0-1.4 2.5-1.5 3.2-0.2 0.8 3.1 2.3 3.1 2.3l-1.6 3.3c0 0-3.4 3.4-4.2 4-0.7 0.5-3.2 0.9-4.1 1.3-0.9 0.4-1.9 1.3-2.6 2.4-0.8 1.2-1.5 2.5-2.1 3.8-0.6 1.3-1.9 3.9-1.9 3.9l-2 5.8c0 0 1.3 6.8 1.7 7.7 0.3 1 3.9 0.4 5 1.2 1.2 0.7 3.2 3.1 4.7 3.7 1.5 0.6 8.8-10.1 10-12.4 1.1-2.2 9.5-4.9 9.5-4.9l4.2 0.2 5.8-2.6 10.9-3.9 7.3-3.8 11.4-3.6c-0.4-5.6 0.5-9.9 0.5-9.9z"/><path class="Z" d="m424.9 337.2c0 0-3.6 1.3-4.5 1.8-0.8 0.6-5.8 4.1-5.8 4.1 0 0-1.7 0.6-1.7 2v3.4c0 0-0.8 4.9 1.3 4 2.1-0.8 3.2-1.6 5.5-3.2 2.3-1.5 5.6-2.2 5.6-2.2 0 0 3.4-1.9 5.4-1.9 1.9 0 2.2 0.9 2.2 0.9l2.6 8.3c0 0-0.3 2.1-1.9 2.6-1.5 0.6-4-0.2-4.8 0.6-0.7 0.9-1.6 2-1.6 2 0 0-8.3 0.4-9.5 0.8-1.1 0.4-3.3 1.9-3.3 1.9 0 0 2.1 3.5 3.8 4 1.6 0.6 3.5 1.6 3.5 1.6 0 0 1.7 3.5 2.1 4.2 0.4 0.7 3.1 2.4 3.6 2.3 0.6-0.2 2.9 0.8 2.9 0.8l2.1 1.8c0 0 2.1-2.4 2.1-3.6 0-1.3-0.3-2 0.5-3 0.9-1 2.9 0.6 2.9 0.6l1.6-5.1c0 0-1.9-5.9 0.5-5.1 2.4 0.9 5.3 4.7 5.3 4.7l3.8-1.4c0 0 3.1-0.2 2.5-2.4-0.5-2.3-5.3-4.9-5.4-5.4-0.2-0.4-0.3-1.9-0.3-1.9l3.8-3.8c0 0 1.4-3.3 0.8-4.4-0.5-1.1-1.8-2.1-1.8-2.1l-4-1c0 0-1.1-0.3-1.4-0.8-0.2-0.6-1.5-2.1-1.5-2.1 0 0-4.7-2.9-6.1-3.3-1.4-0.4-8.7 0.4-8.7 0.4z"/><path class="a0" d="m403.2 215.3c0 9-7.3 16.3-16.2 16.3-9 0-16.3-7.3-16.3-16.3 0-8.9 7.3-16.2 16.3-16.2 8.9 0 16.2 7.3 16.2 16.2z"/><path class="a1" d="m394.5 215.3c0 4.2-3.4 7.6-7.5 7.6-4.2 0-7.6-3.4-7.6-7.6 0-4.1 3.4-7.5 7.6-7.5 4.1 0 7.5 3.4 7.5 7.5z"/><path class="U" d="m254.9 787.7c0 0 45.8 54.8 110.3 74.7l0.4-7.9c0 0-60.8-23.7-104.7-70.9z"/><path class="U" d="m317.6 247.7c0 0 31.6-20.9 53.3-29.4 0 0 1 5.2 4.5 8.5 0 0-33.5 13.9-52.4 27.7z"/><path class="a2" d="m627.8 228.4c0 0 62.7 28.9 89.5 61.3l7.8-7.3c0 0-37.1-40.5-95.4-64.2z"/><path class="l" d="m687.5 828.4l-6.8-4.6c-15.7 14.2-53.1 30.3-59.1 32.8-3-3.6-7.5-5.9-12.5-5.9-9 0-16.3 7.3-16.3 16.2 0 9 7.3 16.3 16.3 16.3 9 0 16.3-7.3 16.3-16.3q0-2-0.5-3.8c38.9-14.4 62.6-34.7 62.6-34.7z"/><path class="I" d="m616.7 866.9c0 4.2-3.4 7.6-7.6 7.6-4.2 0-7.5-3.4-7.5-7.6 0-4.1 3.3-7.5 7.5-7.5 4.2 0 7.6 3.4 7.6 7.5z"/><path class="a3" d="m192.4 419.7l1.5-4-4.7-2.4-1.4 4c-1.6-0.5-3.3-0.8-5-0.8-9 0-16.3 7.3-16.3 16.3 0 8.9 7.3 16.2 16.3 16.2 8.9 0 16.2-7.3 16.2-16.2 0-5.4-2.6-10.2-6.6-13.1z"/><path class="a1" d="m190.6 432.8c0 4.1-3.4 7.5-7.6 7.5-4.2 0-7.5-3.4-7.5-7.5 0-4.2 3.3-7.6 7.5-7.6 4.2 0 7.6 3.4 7.6 7.6z"/><path class="l" d="m815.4 604.2l-6.2-5c-4.8 2.8-8.1 8.1-8.1 14.1 0 6.4 3.6 11.9 8.9 14.5-2.5 8.2-7.2 20-7.2 20l6.4 4.9c1.7-5.6 6.2-19.1 7.5-23.1q0.3 0 0.6 0c9 0 16.3-7.3 16.3-16.3 0-2.6-0.7-5-1.7-7.2-9.3 3.4-16.5-1.9-16.5-1.9z"/><path class="I" d="m824.9 613.3c0 4.2-3.4 7.6-7.6 7.6-4.2 0-7.5-3.4-7.5-7.6 0-4.1 3.3-7.5 7.5-7.5 4.2 0 7.6 3.4 7.6 7.5z"/><path class="a4" d="m-52.3 1093.8q2.4-2.4 5.8-3.7 3.4-1.4 7.4-1.4 3.7 0 7 1.2 3.3 1.2 6 3.9l2.8-2.9q-2.9-3.1-7-4.7-4.1-1.5-9-1.5-4.9 0-9.1 1.6-4.2 1.6-7.2 4.6-3.1 3-4.8 7-1.7 4-1.7 8.7 0 4.8 1.7 8.8 1.7 4 4.7 6.9 3.1 3 7.2 4.6 4.2 1.7 9.1 1.7 4.5 0 8.7-1.4 4.1-1.4 7.2-4.1v-16.5h-4.4v14.5q-2 1.5-4.3 2.3-3.3 1.1-7 1.1-3.9 0-7.3-1.3-3.4-1.4-5.8-3.8-2.5-2.4-3.9-5.7-1.4-3.3-1.4-7.1 0-3.9 1.4-7.1 1.4-3.2 3.9-5.7z"/><path class="a4" d="m9.1 1097.6q-3.5-2.1-8.1-2.1-4.5 0-8.1 2.1-3.6 2.2-5.7 5.9-2 3.7-2 8.5 0 4.8 2.1 8.5 2.2 3.8 6 5.9 3.8 2.1 8.9 2.1 3.9 0 7.1-1.3 3.2-1.4 5.4-4l-2.5-2.8q-1.8 2.1-4.4 3.2-2.5 1-5.5 1-3.8 0-6.7-1.5-2.9-1.6-4.5-4.4-1.4-2.4-1.6-5.4h27.2q0-0.3 0-0.7 0-0.3 0-0.6 0-4.9-2-8.6-2-3.7-5.6-5.8zm-18.2 7.5q1.5-2.7 4.1-4.3 2.7-1.5 6-1.5 3.4 0 6 1.5 2.6 1.6 4.1 4.3 1.2 2.2 1.4 5h-23q0.2-2.7 1.4-5z"/><path class="a4" d="m43.6 1112.4q-1.9-0.8-4.1-1.4-2.3-0.5-4.5-0.9-2.3-0.3-4.2-0.9-1.8-0.6-3-1.7-1.1-1-1.1-2.9 0-2.3 2-3.8 2.1-1.5 6.5-1.5 2.4 0 4.9 0.6 2.5 0.7 4.6 2.2l1.9-3.6q-2-1.3-5.1-2.1-3.2-0.9-6.3-0.9-4.2 0-7 1.2-2.9 1.2-4.4 3.3-1.4 2.1-1.4 4.8 0 2.7 1.1 4.4 1.1 1.7 3 2.6 1.8 1 4.1 1.5 2.2 0.5 4.5 0.8 2.3 0.4 4.1 0.9 1.9 0.6 3 1.6 1.2 1 1.2 2.8 0 2.4-2.1 3.8-2 1.5-6.6 1.5-3.4 0-6.5-1.1-3.1-1.1-5-2.5l-2 3.4q2 1.7 5.6 2.9 3.6 1.1 7.6 1.1 4.2 0 7.2-1.1 3-1.2 4.6-3.2 1.6-2.1 1.6-4.9 0-2.7-1.2-4.3-1.1-1.7-3-2.6z"/><path class="a4" d="m66.5 1124.8q-2.7-0.1-4.2-1.6-1.4-1.5-1.4-4.4v-19.3h9.9v-3.7h-9.9v-7.1h-4.4v7.1h-5.8v3.7h5.8v19.6q0 4.5 2.5 6.9 2.4 2.5 7 2.5 1.9 0 3.7-0.5 1.9-0.6 3.2-1.8l-1.6-3.1q-1.9 1.6-4.8 1.7z"/><path class="a4" d="m83 1082.4q-1.3 0.1-2.3 0.9-0.9 0.9-0.9 2.2 0 1.3 0.9 2.3 1 0.9 2.3 0.9 1.4 0 2.3-0.9 0.9-1 0.9-2.3 0-1.3-0.9-2.2-0.9-0.8-2.3-0.9z"/><path class="a4" d="m80.8 1128.2h4.4v-32.4h-4.4z"/><path class="a4" d="m110.9 1090.8l10-7.7h-5.9l-8.4 7.7z"/><path class="a4" d="m119.1 1097.6q-3.7-2.1-8.5-2.1-4.8 0-8.5 2.1-3.7 2.1-5.8 5.8-2.2 3.7-2.2 8.6 0 4.7 2.2 8.5 2.1 3.8 5.8 5.9 3.7 2.1 8.5 2.1 4.7 0 8.5-2.1 3.8-2.1 5.9-5.9 2.1-3.7 2.1-8.5 0-4.9-2.1-8.6-2.1-3.6-5.9-5.8zm2 21q-1.6 2.9-4.3 4.5-2.7 1.5-6.2 1.5-3.5 0-6.1-1.5-2.7-1.6-4.3-4.5-1.6-2.8-1.6-6.6 0-3.8 1.6-6.7 1.6-2.8 4.3-4.4 2.7-1.6 6.1-1.6 3.5 0 6.2 1.6 2.7 1.6 4.3 4.4 1.6 2.9 1.6 6.7 0 3.8-1.6 6.6z"/><path class="a4" d="m159.5 1097q-3-1.5-6.9-1.5-4.7 0-8.1 2-2.7 1.6-4.3 4.2v-5.9h-4.1v32.4h4.3v-17q0-3.7 1.4-6.3 1.4-2.7 4-4 2.5-1.4 6-1.4 4.6 0 7.2 2.6 2.5 2.6 2.5 7.7v18.4h4.4v-18.8q0-4.7-1.7-7.8-1.7-3.1-4.7-4.6z"/><path class="a4" d="m200.7 1093.8q2.5-2.4 5.8-3.7 3.4-1.4 7.2-1.4 3.7 0 7 1.2 3.2 1.2 5.8 4l2.9-2.9q-2.8-3.2-7-4.8-4.1-1.5-8.8-1.5-4.8 0-9 1.6-4.1 1.6-7.2 4.6-3 3-4.7 7-1.7 4-1.7 8.7 0 4.8 1.7 8.8 1.7 4 4.7 6.9 3 3 7.2 4.6 4.1 1.7 9 1.7 4.7 0 8.8-1.6 4.2-1.6 7-4.8l-2.9-2.9q-2.6 2.7-5.8 4-3.3 1.2-7 1.2-3.8 0-7.2-1.3-3.3-1.4-5.8-3.8-2.4-2.4-3.8-5.7-1.4-3.2-1.4-7.1 0-3.9 1.4-7.1 1.4-3.2 3.8-5.7z"/><path class="a4" d="m238.2 1128.2h4.4v-32.4h-4.4z"/><path class="a4" d="m240.4 1082.4q-1.3 0.1-2.2 0.9-1 0.9-1 2.2 0 1.3 1 2.3 0.9 0.9 2.2 0.9 1.5 0 2.4-0.9 0.9-1 0.9-2.3 0-1.3-1-2.2-0.9-0.8-2.3-0.9z"/><path class="a4" d="m259 1102.1v-6.3h-4.2v32.4h4.4v-16.5q0-5.8 2.9-8.9 2.9-3.1 8-3.1 0.3 0 0.5 0 0.2 0.1 0.5 0.1v-4.3q-4.8 0-8 2-2.7 1.6-4.1 4.6z"/><path class="a4" d="m285.9 1100.9q2.8-1.6 6.2-1.6 2.9 0 5.4 1.2 2.4 1.2 4.1 3.7l3.3-2.3q-1.9-3.2-5.3-4.8-3.3-1.6-7.4-1.6-4.8 0-8.6 2.1-3.8 2.1-6 5.8-2.1 3.7-2.1 8.6 0 4.8 2.1 8.5 2.2 3.8 6 5.9 3.8 2.1 8.6 2.1 4.1 0 7.4-1.6 3.4-1.7 5.3-4.8l-3.3-2.2q-1.7 2.4-4.1 3.6-2.5 1.1-5.4 1.1-3.4 0-6.2-1.5-2.8-1.6-4.4-4.5-1.6-2.8-1.6-6.6 0-3.8 1.6-6.7 1.6-2.8 4.4-4.4z"/><path class="a4" d="m338.3 1112.8q0 3.7-1.3 6.3-1.4 2.7-3.8 4.1-2.5 1.4-5.9 1.4-4.7 0-7.2-2.7-2.6-2.6-2.6-7.8v-18.3h-4.4v18.8q0 4.7 1.7 7.7 1.7 3.1 4.8 4.7 3.1 1.5 7.2 1.5 4.3 0 7.6-2 2.6-1.6 4.1-4.3v6h4.2v-32.4h-4.4z"/><path class="a4" d="m735.9 1112.8q0 3.7-1.3 6.3-1.3 2.7-3.8 4.1-2.5 1.4-5.9 1.4-4.7 0-7.2-2.7-2.6-2.6-2.6-7.8v-18.3h-4.4v18.8q0 4.7 1.7 7.7 1.7 3.1 4.8 4.7 3.1 1.5 7.2 1.5 4.4 0 7.6-2 2.6-1.6 4.1-4.3v6h4.2v-32.4h-4.4z"/><path class="a4" d="m354.9 1128.2h4.4v-45.8h-4.4z"/><path class="a4" d="m382.8 1095.5q-3.8 0-7.3 1.2-3.4 1.1-5.9 3.2l2 3.3q2-1.8 4.8-2.8 2.8-1.1 6-1.1 4.6 0 6.9 2.3 2.3 2.2 2.3 6.3v2h-10.3q-4.6 0-7.4 1.3-2.7 1.2-3.9 3.3-1.2 2-1.2 4.6 0 2.8 1.4 4.9 1.4 2.1 4.1 3.3 2.7 1.2 6.3 1.2 4.6 0 7.7-1.9 2.2-1.4 3.5-3.5v5.1h4.2v-20.1q0-6.3-3.5-9.5-3.4-3.1-9.7-3.1zm4.9 27.9q-2.7 1.7-6.4 1.7-3.9 0-6.1-1.7-2.1-1.7-2.1-4.4 0-2.5 1.8-4.2 1.8-1.6 6.5-1.6h10.2v5.3q-1.3 3.2-3.9 4.9z"/><path class="a4" d="m412 1102.1v-6.3h-4.1v32.4h4.3v-16.5q0-5.8 2.9-8.9 2.9-3.1 8-3.1 0.3 0 0.5 0 0.3 0.1 0.5 0.1v-4.3q-4.7 0-7.9 2-2.8 1.6-4.2 4.6z"/><path class="a4" d="m474 1102c-1.3-1.9-2.9-3.5-4.8-4.6q-3.3-1.9-7.6-1.9-4.6 0-8.3 2.1-3.6 2.1-5.7 5.8-2.1 3.7-2.1 8.6 0 4.9 2.1 8.6 2.1 3.7 5.7 5.8 3.7 2.1 8.3 2.1 4.3 0 7.7-1.9c2-1.2 3.6-2.8 4.8-4.9v6.5h4.2v-45.8h-4.3zm-1.6 16.7q-1.5 2.8-4.3 4.4-2.7 1.6-6.2 1.6-3.4 0-6.1-1.6-2.7-1.6-4.3-4.4-1.6-2.9-1.6-6.7 0-3.8 1.6-6.6 1.6-2.8 4.3-4.4 2.7-1.6 6.1-1.6 3.5 0 6.2 1.6 2.8 1.6 4.3 4.4 1.6 2.8 1.6 6.6 0 3.8-1.6 6.7z"/><path class="a4" d="m511.2 1097.6q-3.5-2.1-8.1-2.1-4.5 0-8.1 2.1-3.6 2.2-5.7 5.9-2 3.7-2 8.5 0 4.8 2.1 8.5 2.2 3.8 6 5.9 3.8 2.1 8.9 2.1 3.9 0 7.1-1.3 3.2-1.4 5.4-4l-2.5-2.8q-1.8 2.1-4.4 3.2-2.5 1-5.5 1-3.7 0-6.7-1.5-2.9-1.6-4.5-4.4-1.4-2.4-1.6-5.4h27.2q0-0.3 0-0.7 0-0.3 0-0.6 0-4.9-2-8.6-2-3.7-5.6-5.8zm-18.2 7.5q1.5-2.7 4.1-4.3 2.7-1.5 6-1.5 3.4 0 6 1.5 2.6 1.6 4.1 4.3 1.2 2.2 1.4 5h-23q0.2-2.7 1.4-5z"/><path class="a4" d="m570.5 1112.8q3.9-1.8 6-5.1 2.2-3.3 2.2-7.9 0-4.6-2.2-7.9-2.1-3.3-6-5.1-4-1.8-9.5-1.8h-16.1v43.2h4.5v-13.7h11.6c1.2 0 2.4-0.1 3.5-0.2l9.8 13.9h5l-10.5-14.8q0.8-0.3 1.7-0.6zm-9.6-2.2h-11.5v-21.6h11.5q6.5 0 9.8 2.8 3.4 2.9 3.4 8 0 5.2-3.4 8-3.3 2.8-9.8 2.8z"/><path class="a4" d="m609.2 1097.6q-3.5-2.1-8.1-2.1-4.5 0-8.1 2.1-3.6 2.2-5.7 5.9-2.1 3.7-2.1 8.5 0 4.8 2.2 8.5 2.2 3.8 6 5.9 3.8 2.1 8.9 2.1 3.9 0 7.1-1.3 3.2-1.4 5.4-4l-2.5-2.8q-1.8 2.1-4.4 3.2-2.5 1-5.5 1-3.8 0-6.7-1.5-2.9-1.6-4.6-4.4-1.3-2.4-1.5-5.4h27.2q0-0.3 0-0.7 0-0.3 0-0.6 0-4.9-2-8.6-2-3.7-5.6-5.8zm-18.2 7.5q1.5-2.7 4.1-4.3 2.7-1.5 6-1.5 3.4 0 6 1.5 2.6 1.6 4.1 4.3 1.2 2.2 1.4 5h-23q0.2-2.7 1.4-5z"/><path class="a4" d="m643.7 1112.4q-1.9-0.8-4.2-1.4-2.2-0.5-4.5-0.9-2.2-0.3-4.1-0.9-1.9-0.6-3-1.7-1.2-1-1.2-2.9 0-2.3 2.1-3.8 2.1-1.5 6.5-1.5 2.4 0 4.9 0.6 2.5 0.7 4.6 2.2l1.9-3.6q-2-1.3-5.2-2.1-3.1-0.9-6.2-0.9-4.2 0-7 1.2-2.9 1.2-4.4 3.3-1.5 2.1-1.5 4.8 0 2.7 1.2 4.4 1.1 1.7 3 2.6 1.8 1 4.1 1.5 2.2 0.5 4.5 0.8 2.3 0.4 4.1 0.9 1.9 0.6 3 1.6 1.2 1 1.2 2.8 0 2.4-2.1 3.8-2 1.5-6.6 1.5-3.4 0-6.5-1.1-3.1-1.1-5.1-2.5l-1.9 3.4q2 1.7 5.6 2.9 3.5 1.1 7.6 1.1 4.2 0 7.2-1.1 3-1.2 4.6-3.2 1.5-2.1 1.5-4.9 0-2.7-1.1-4.3-1.1-1.7-3-2.6z"/><path class="a4" d="m658.1 1082.4q-1.4 0.1-2.3 0.9-0.9 0.9-0.9 2.2 0 1.3 0.9 2.3 0.9 0.9 2.3 0.9 1.4 0 2.3-0.9 0.9-1 0.9-2.3 0-1.3-0.9-2.2-1-0.8-2.3-0.9z"/><path class="a4" d="m655.9 1128.2h4.3v-32.4h-4.3z"/><path class="a4" d="m697.7 1102c-1.3-1.9-2.9-3.5-4.8-4.6q-3.3-1.9-7.6-1.9-4.6 0-8.3 2.1-3.6 2.1-5.7 5.8-2.1 3.7-2.1 8.6 0 4.9 2.1 8.6 2.1 3.7 5.7 5.8 3.7 2.1 8.3 2.1 4.3 0 7.7-1.9c2-1.2 3.6-2.8 4.8-4.9v6.5h4.2v-45.8h-4.3zm-1.6 16.7q-1.5 2.8-4.3 4.4-2.7 1.6-6.2 1.6-3.4 0-6.1-1.6-2.7-1.6-4.3-4.4-1.6-2.9-1.6-6.7 0-3.8 1.6-6.6 1.6-2.8 4.3-4.4 2.7-1.6 6.1-1.6 3.5 0 6.2 1.6 2.8 1.6 4.3 4.4 1.6 2.8 1.6 6.6 0 3.8-1.6 6.7z"/><path class="a4" d="m771.9 1097.6q-3.7-2.1-8.5-2.1-4.8 0-8.5 2.1-3.7 2.1-5.8 5.8-2.2 3.7-2.2 8.6 0 4.7 2.2 8.5 2.1 3.8 5.8 5.9 3.7 2.1 8.5 2.1 4.7 0 8.5-2.1 3.7-2.1 5.9-5.9 2.1-3.7 2.1-8.5 0-4.9-2.1-8.6-2.2-3.6-5.9-5.8zm2 21q-1.6 2.9-4.3 4.5-2.7 1.5-6.2 1.5-3.5 0-6.2-1.5-2.7-1.6-4.3-4.5-1.6-2.8-1.6-6.6 0-3.8 1.6-6.7 1.6-2.8 4.4-4.4 2.7-1.6 6.1-1.6 3.5 0 6.2 1.6 2.7 1.6 4.3 4.4 1.5 2.9 1.5 6.7 0 3.8-1.5 6.6z"/><path class="a4" d="m806.7 1112.4q-1.8-0.8-4.1-1.4-2.2-0.5-4.5-0.9-2.2-0.3-4.1-0.9-1.9-0.6-3-1.7-1.2-1-1.2-2.9 0-2.3 2.1-3.8 2-1.5 6.4-1.5 2.5 0 5 0.6 2.4 0.7 4.6 2.2l1.9-3.6q-2-1.3-5.2-2.1-3.1-0.9-6.3-0.9-4.1 0-7 1.2-2.8 1.2-4.3 3.3-1.5 2.1-1.5 4.8 0 2.7 1.1 4.4 1.2 1.7 3 2.6 1.9 1 4.1 1.5 2.3 0.5 4.6 0.8 2.2 0.4 4.1 0.9 1.8 0.6 3 1.6 1.1 1 1.1 2.8 0 2.4-2 3.8-2 1.5-6.7 1.5-3.4 0-6.4-1.1-3.1-1.1-5.1-2.5l-2 3.4q2.1 1.7 5.6 2.9 3.6 1.1 7.6 1.1 4.3 0 7.3-1.1 3-1.2 4.5-3.2 1.6-2.1 1.6-4.9 0-2.7-1.1-4.3-1.2-1.7-3.1-2.6z"/></svg>